<?xml version="1.0" standalone="no"?>
<!DOCTYPE svg PUBLIC "-//W3C//DTD SVG 20010904//EN"
 "http://www.w3.org/TR/2001/REC-SVG-20010904/DTD/svg10.dtd">
<svg version="1.0" xmlns="http://www.w3.org/2000/svg"
 width="500.000000pt" height="500.000000pt" viewBox="0 0 500.000000 500.000000"
 preserveAspectRatio="xMidYMid meet">

<g transform="translate(0.000000,500.000000) scale(0.100000,-0.100000)"
fill="#000000" stroke="none">
<path d="M1540 2669 l0 -521 253 4 253 3 66 33 c117 57 164 143 156 278 -7
101 -41 158 -118 196 -30 15 -63 29 -73 32 -14 5 -9 13 27 46 96 89 103 268
13 360 -67 69 -160 89 -419 90 l-158 0 0 -521z m355 315 c19 -9 38 -28 45 -45
15 -36 7 -95 -16 -120 -19 -21 -73 -39 -116 -39 l-28 0 0 110 0 110 41 0 c23
0 56 -7 74 -16z m65 -429 c42 -22 60 -53 60 -105 -1 -80 -41 -109 -161 -117
l-79 -6 0 128 0 128 75 -6 c42 -4 89 -14 105 -22z"/>
<path d="M2307 3183 c-4 -3 -7 -237 -7 -520 l0 -513 120 0 120 0 0 520 0 520
-113 0 c-63 0 -117 -3 -120 -7z"/>
<path d="M2627 3184 c-4 -4 -7 -238 -7 -521 l0 -513 120 0 120 0 2 216 3 216
177 -204 c97 -112 183 -210 191 -216 11 -9 59 -12 171 -10 l157 3 -231 260
c-127 143 -233 265 -236 272 -3 7 85 119 195 249 111 131 201 241 201 246 0 4
-60 8 -134 8 -99 0 -138 -4 -148 -13 -7 -8 -88 -102 -178 -210 l-165 -197 -5
207 -5 208 -111 3 c-60 1 -113 -1 -117 -4z"/>
<path d="M3635 2393 c-98 -26 -127 -151 -51 -220 30 -28 43 -33 85 -33 100 0
158 94 115 185 -9 19 -26 41 -38 49 -27 17 -82 27 -111 19z"/>
</g>
</svg>
